<svg width="338.721" height="71.973" viewBox="0 0 338.721 71.973" xmlns="http://www.w3.org/2000/svg"><g id="svgGroup" stroke-linecap="round" fill-rule="evenodd" font-size="9pt" stroke="#000" stroke-width="0.25mm" fill="#000" style="stroke:#000;stroke-width:0.25mm;fill:#000"><path d="M 75.586 71.973 L 70.605 71.973 Q 67.041 71.973 63.892 70.63 Q 60.742 69.288 58.398 66.944 A 17.327 17.327 0 0 1 54.712 61.475 Q 53.369 58.35 53.369 54.786 L 53.369 17.188 Q 53.369 13.623 54.712 10.498 A 17.327 17.327 0 0 1 58.398 5.03 Q 60.742 2.686 63.892 1.343 Q 67.041 0 70.605 0 L 75.586 0 Q 79.15 0 82.275 1.343 A 17.327 17.327 0 0 1 87.744 5.03 A 17.327 17.327 0 0 1 91.431 10.498 Q 92.773 13.623 92.773 17.188 L 92.773 20.02 L 86.475 20.996 L 86.475 17.188 A 11.002 11.002 0 0 0 85.849 13.459 A 10.417 10.417 0 0 0 85.596 12.818 A 11.329 11.329 0 0 0 83.203 9.278 A 11.329 11.329 0 0 0 79.663 6.885 A 10.808 10.808 0 0 0 75.512 6.008 A 12.383 12.383 0 0 0 75.293 6.006 L 70.898 6.006 A 11.002 11.002 0 0 0 67.169 6.632 A 10.417 10.417 0 0 0 66.528 6.885 A 11.63 11.63 0 0 0 62.964 9.278 Q 61.426 10.791 60.547 12.818 A 10.808 10.808 0 0 0 59.67 16.969 A 12.383 12.383 0 0 0 59.668 17.188 L 59.668 54.786 A 11.002 11.002 0 0 0 60.294 58.515 A 10.417 10.417 0 0 0 60.547 59.156 A 11.417 11.417 0 0 0 62.964 62.72 Q 64.502 64.258 66.528 65.137 A 10.808 10.808 0 0 0 70.679 66.014 A 12.383 12.383 0 0 0 70.898 66.016 L 75.293 66.016 A 11.002 11.002 0 0 0 79.022 65.39 A 10.417 10.417 0 0 0 79.663 65.137 A 11.126 11.126 0 0 0 83.203 62.72 A 11.63 11.63 0 0 0 85.596 59.156 A 10.808 10.808 0 0 0 86.473 55.005 A 12.383 12.383 0 0 0 86.475 54.786 L 86.475 50.977 L 92.773 52.002 L 92.773 54.786 Q 92.773 58.35 91.431 61.475 A 17.327 17.327 0 0 1 87.744 66.944 A 17.327 17.327 0 0 1 82.275 70.63 Q 79.15 71.973 75.586 71.973 Z M 150.977 71.973 L 145.996 71.973 Q 142.432 71.973 139.282 70.63 Q 136.133 69.288 133.789 66.944 A 17.327 17.327 0 0 1 130.103 61.475 Q 128.76 58.35 128.76 54.786 L 128.76 17.188 Q 128.76 13.623 130.103 10.498 A 17.327 17.327 0 0 1 133.789 5.03 Q 136.133 2.686 139.282 1.343 Q 142.432 0 145.996 0 L 150.977 0 Q 154.541 0 157.666 1.343 A 17.327 17.327 0 0 1 163.135 5.03 A 17.327 17.327 0 0 1 166.821 10.498 Q 168.164 13.623 168.164 17.188 L 168.164 20.02 L 161.865 20.996 L 161.865 17.188 A 11.002 11.002 0 0 0 161.24 13.459 A 10.417 10.417 0 0 0 160.986 12.818 A 11.329 11.329 0 0 0 158.594 9.278 A 11.329 11.329 0 0 0 155.054 6.885 A 10.808 10.808 0 0 0 150.903 6.008 A 12.383 12.383 0 0 0 150.684 6.006 L 146.289 6.006 A 11.002 11.002 0 0 0 142.56 6.632 A 10.417 10.417 0 0 0 141.919 6.885 A 11.63 11.63 0 0 0 138.354 9.278 Q 136.816 10.791 135.938 12.818 A 10.808 10.808 0 0 0 135.061 16.969 A 12.383 12.383 0 0 0 135.059 17.188 L 135.059 54.786 A 11.002 11.002 0 0 0 135.684 58.515 A 10.417 10.417 0 0 0 135.937 59.156 A 11.417 11.417 0 0 0 138.354 62.72 Q 139.893 64.258 141.919 65.137 A 10.808 10.808 0 0 0 146.07 66.014 A 12.383 12.383 0 0 0 146.289 66.016 L 150.684 66.016 A 11.002 11.002 0 0 0 154.413 65.39 A 10.417 10.417 0 0 0 155.054 65.137 A 11.126 11.126 0 0 0 158.594 62.72 A 11.63 11.63 0 0 0 160.986 59.156 A 10.808 10.808 0 0 0 161.863 55.005 A 12.383 12.383 0 0 0 161.865 54.786 L 161.865 50.977 L 168.164 52.002 L 168.164 54.786 Q 168.164 58.35 166.821 61.475 A 17.327 17.327 0 0 1 163.135 66.944 A 17.327 17.327 0 0 1 157.666 70.63 Q 154.541 71.973 150.977 71.973 Z M 303.027 70.996 L 297.021 70.996 L 297.021 34.375 Q 297.021 32.569 296.338 30.982 A 8.758 8.758 0 0 0 294.482 28.223 Q 293.311 27.051 291.724 26.368 Q 290.137 25.684 288.33 25.684 L 284.326 25.684 Q 282.52 25.684 280.933 26.368 A 8.758 8.758 0 0 0 278.174 28.223 Q 277.002 29.395 276.318 30.982 Q 275.635 32.569 275.635 34.375 L 275.635 70.996 L 269.629 70.996 L 269.629 20.996 L 271.631 20.996 L 274.902 26.075 A 15.011 15.011 0 0 1 280.054 21.656 Q 283.154 20.02 286.816 20.02 L 288.33 20.02 A 14.387 14.387 0 0 1 294.043 21.167 A 14.758 14.758 0 0 1 298.73 24.317 Q 300.732 26.319 301.88 29.004 A 14.387 14.387 0 0 1 303.027 34.717 L 303.027 70.996 Z M 242.92 71.973 L 238.916 71.973 A 14.387 14.387 0 0 1 233.203 70.826 A 14.758 14.758 0 0 1 228.516 67.676 Q 226.514 65.674 225.366 62.989 A 14.387 14.387 0 0 1 224.219 57.276 L 224.219 34.717 A 14.387 14.387 0 0 1 225.366 29.004 A 14.758 14.758 0 0 1 228.516 24.317 Q 230.518 22.315 233.203 21.167 A 14.387 14.387 0 0 1 238.916 20.02 L 242.92 20.02 A 14.387 14.387 0 0 1 248.633 21.167 A 14.758 14.758 0 0 1 253.32 24.317 Q 255.322 26.319 256.47 29.004 A 14.387 14.387 0 0 1 257.617 34.717 L 257.617 46.485 L 230.225 46.485 L 230.225 57.618 Q 230.225 59.424 230.908 61.011 A 8.758 8.758 0 0 0 232.764 63.77 Q 233.936 64.942 235.522 65.625 Q 237.109 66.309 238.916 66.309 L 242.92 66.309 Q 244.727 66.309 246.313 65.625 A 8.758 8.758 0 0 0 249.072 63.77 Q 250.244 62.598 250.928 61.011 Q 251.611 59.424 251.611 57.618 L 251.611 54.297 L 257.617 55.274 L 257.617 57.276 A 14.387 14.387 0 0 1 256.47 62.989 A 14.758 14.758 0 0 1 253.32 67.676 Q 251.318 69.678 248.633 70.826 A 14.387 14.387 0 0 1 242.92 71.973 Z M 22.168 70.996 L 0 70.996 L 0 0.977 L 22.168 0.977 Q 25.732 0.977 28.882 2.32 Q 32.031 3.663 34.375 6.006 Q 36.719 8.35 38.062 11.499 Q 39.404 14.649 39.404 18.213 L 39.404 53.809 Q 39.404 57.373 38.062 60.498 A 17.327 17.327 0 0 1 34.375 65.967 Q 32.031 68.311 28.882 69.654 Q 25.732 70.996 22.168 70.996 Z M 338.721 70.996 L 333.252 70.996 Q 330.518 70.996 328.101 69.971 A 12.918 12.918 0 0 1 323.901 67.139 A 13.837 13.837 0 0 1 321.069 62.94 A 12.618 12.618 0 0 1 320.02 57.813 L 320.02 26.709 L 311.035 26.709 L 311.035 20.996 L 320.02 20.996 L 320.02 8.985 L 326.025 8.008 L 326.025 20.996 L 338.721 20.996 L 338.721 26.709 L 326.025 26.709 L 326.025 58.106 A 7.164 7.164 0 0 0 326.341 60.253 A 6.598 6.598 0 0 0 326.587 60.913 A 7.274 7.274 0 0 0 328.125 63.184 Q 329.102 64.161 330.42 64.722 A 7.128 7.128 0 0 0 333.158 65.283 A 8.111 8.111 0 0 0 333.252 65.284 L 338.721 65.284 L 338.721 70.996 Z M 33.105 53.809 L 33.105 18.213 A 11.002 11.002 0 0 0 32.48 14.484 A 10.417 10.417 0 0 0 32.227 13.843 A 11.417 11.417 0 0 0 29.81 10.279 Q 28.271 8.741 26.245 7.862 A 10.808 10.808 0 0 0 22.094 6.985 A 12.383 12.383 0 0 0 21.875 6.983 L 6.299 6.983 L 6.299 64.991 L 21.875 64.991 A 11.002 11.002 0 0 0 25.604 64.365 A 10.417 10.417 0 0 0 26.245 64.112 A 11.63 11.63 0 0 0 29.81 61.719 Q 31.348 60.205 32.227 58.179 A 10.808 10.808 0 0 0 33.104 54.028 A 12.383 12.383 0 0 0 33.105 53.809 Z M 188.184 70.996 L 182.178 70.996 L 182.178 0.977 L 188.184 0.977 L 188.184 70.996 Z M 210.205 70.996 L 204.199 70.996 L 204.199 20.996 L 210.205 20.996 L 210.205 70.996 Z M 251.611 41.797 L 251.611 34.375 Q 251.611 32.569 250.928 30.982 A 8.758 8.758 0 0 0 249.072 28.223 Q 247.9 27.051 246.313 26.368 Q 244.727 25.684 242.92 25.684 L 238.916 25.684 Q 237.109 25.684 235.522 26.368 A 8.758 8.758 0 0 0 232.764 28.223 Q 231.592 29.395 230.908 30.982 Q 230.225 32.569 230.225 34.375 L 230.225 41.797 L 251.611 41.797 Z M 210.693 8.985 L 203.711 8.985 L 203.711 0.977 L 210.693 0.977 L 210.693 8.985 Z" vector-effect="non-scaling-stroke"/></g></svg>